<svg xmlns="http://www.w3.org/2000/svg" xmlns:xlink="http://www.w3.org/1999/xlink" width="500" zoomAndPan="magnify" viewBox="0 0 375 374.999991" height="500" preserveAspectRatio="xMidYMid meet" version="1.0"><defs><g/></defs><path stroke-linecap="butt" transform="matrix(0.731162, -0.16704, 0.16704, 0.731162, -10.274296, 64.977111)" fill="none" stroke-linejoin="miter" d="M 72.474405 92.596796 C 75.996023 92.055023 80.247074 91.781403 85.220158 91.784931 C 87.074856 91.78125 90.462789 91.871409 95.389036 92.056567 C 100.316443 92.236648 105.264221 92.982347 110.233529 94.288588 C 122.847881 97.816889 133.623395 104.483213 142.575304 114.291041 C 151.570153 124.097994 158.008577 136.302038 161.896813 150.899257 C 163.207169 157.23033 163.906666 163.779796 163.998061 170.55897 C 164.088582 177.295204 164.134244 181.024033 164.135047 181.745457 C 164.134084 193.044678 163.476264 201.746957 162.167823 207.848377 C 159.771314 217.473042 156.063149 226.221055 151.049565 234.088499 C 146.075003 241.948831 139.883051 248.660207 132.473708 254.222629 C 127.8152 257.565937 123.545831 260.164713 119.660522 262.017796 C 115.770136 263.86972 111.048178 265.339333 105.489569 266.425476 C 99.570345 267.733757 93.736351 268.388351 87.997742 268.391578 C 80.812367 268.390174 72.199958 267.058357 62.166752 264.39221 C 52.181849 261.67833 43.029336 256.162803 34.709215 247.845629 C 18.982109 231.938119 11.115555 209.545505 11.11579 180.663869 C 11.117849 178.222805 11.210713 175.711664 11.386985 173.13944 C 11.931646 156.279986 15.163998 142.224993 21.0852 130.969382 C 31.840363 110.223904 48.968792 97.430963 72.474405 92.596796 Z M 109.421935 125.949964 C 106.255787 124.281004 103.566262 123.30861 101.352202 123.03786 C 99.138141 122.767111 95.342104 122.428784 89.965251 122.017803 C 83.50014 122.020673 78.41714 122.451491 74.711174 123.309098 C 71.004333 124.123764 66.936803 125.839052 62.507426 128.460041 C 58.801315 130.674615 55.771409 133.273403 53.422785 136.257564 C 51.117385 139.192832 48.949882 142.880844 46.912438 147.309126 C 43.02542 156.20861 41.038066 163.714944 40.947619 169.816814 C 40.857171 175.918684 40.812537 179.060577 40.814877 179.237415 C 40.815095 190.718551 42.667589 201.271196 46.3712 210.900428 C 47.685293 215.554801 50.82322 220.55105 55.797457 225.881338 C 60.632811 230.72044 65.221374 233.927116 69.555748 235.510361 C 73.895484 237.046748 79.955369 237.928982 87.725248 238.154744 C 94.777886 238.152536 100.519742 237.316617 104.94574 235.645826 C 109.420915 233.970242 113.694772 231.281669 117.762233 227.578945 C 123.861445 221.834748 128.20104 215.30389 130.775941 207.985211 C 133.400019 200.66174 134.710001 191.349814 134.710964 180.050593 C 134.707442 166.175252 132.607515 154.7647 128.406103 145.817777 C 124.247916 136.821962 117.918168 130.198971 109.421935 125.949964 Z M 109.421935 125.949964 " stroke="#000000" stroke-width="20.827425" stroke-opacity="1" stroke-miterlimit="4"/><g fill="#00bf63" fill-opacity="1"><g transform="translate(35.995803, 267.508923)"><g><path d="M 22.203125 -146.921875 C 24.671875 -147.910156 27.734375 -148.820312 31.390625 -149.65625 C 32.742188 -149.96875 35.226562 -150.460938 38.84375 -151.140625 C 42.46875 -151.828125 46.21875 -152.117188 50.09375 -152.015625 C 59.875 -151.535156 68.867188 -148.457031 77.078125 -142.78125 C 85.285156 -137.101562 92.03125 -129.25 97.3125 -119.21875 C 99.300781 -114.820312 100.894531 -110.160156 102.09375 -105.234375 C 103.289062 -100.316406 103.953125 -97.585938 104.078125 -97.046875 C 105.960938 -88.796875 106.941406 -82.332031 107.015625 -77.65625 C 106.867188 -70.207031 105.625 -63.1875 103.28125 -56.59375 C 100.9375 -50.007812 97.523438 -44.070312 93.046875 -38.78125 C 90.222656 -35.570312 87.539062 -32.960938 85 -30.953125 C 82.46875 -28.941406 79.265625 -27.070312 75.390625 -25.34375 C 71.265625 -23.40625 67.109375 -21.957031 62.921875 -21 C 57.640625 -19.789062 51.117188 -19.332031 43.359375 -19.625 C 35.609375 -19.925781 27.988281 -22.425781 20.5 -27.125 C 6.34375 -36.132812 -3.144531 -51.195312 -7.96875 -72.3125 C -8.375 -74.0625 -8.726562 -75.90625 -9.03125 -77.84375 C -11.4375 -90.25 -11.410156 -101.078125 -8.953125 -110.328125 C -4.578125 -127.273438 5.804688 -139.472656 22.203125 -146.921875 Z M 54.765625 -128.734375 C 52.179688 -129.421875 50.050781 -129.679688 48.375 -129.515625 C 46.707031 -129.347656 43.878906 -128.953125 39.890625 -128.328125 C 35.148438 -127.242188 31.5 -126.085938 28.9375 -124.859375 C 26.375 -123.628906 23.6875 -121.695312 20.875 -119.0625 C 18.519531 -116.8125 16.742188 -114.410156 15.546875 -111.859375 C 14.359375 -109.316406 13.394531 -106.253906 12.65625 -102.671875 C 11.289062 -95.515625 11.082031 -89.691406 12.03125 -85.203125 C 12.988281 -80.722656 13.484375 -78.414062 13.515625 -78.28125 C 15.429688 -69.882812 18.550781 -62.476562 22.875 -56.0625 C 24.59375 -52.894531 27.726562 -49.769531 32.28125 -46.6875 C 36.601562 -43.96875 40.484375 -42.394531 43.921875 -41.96875 C 47.367188 -41.539062 51.945312 -41.910156 57.65625 -43.078125 C 62.789062 -44.253906 66.84375 -45.820312 69.8125 -47.78125 C 72.789062 -49.738281 75.457031 -52.414062 77.8125 -55.8125 C 81.332031 -61.03125 83.429688 -66.53125 84.109375 -72.3125 C 84.785156 -78.09375 84.179688 -85.109375 82.296875 -93.359375 C 79.972656 -103.503906 76.535156 -111.507812 71.984375 -117.375 C 67.441406 -123.238281 61.703125 -127.023438 54.765625 -128.734375 Z M 54.765625 -128.734375 "/></g></g></g><path stroke-linecap="butt" transform="matrix(0.731068, 0.167452, -0.167452, 0.731068, 261.096873, 71.157257)" fill="none" stroke-linejoin="miter" d="M 74.817873 224.999897 L 92.381141 225.000454 C 127.827406 224.997796 153.981159 198.841971 153.983578 163.394544 L 153.983088 99.591352 C 153.982728 64.411722 127.609902 37.98708 92.377178 37.988915 L 74.81391 37.988357 C 39.585099 37.983953 13.209949 64.409561 13.21031 99.589191 L 13.211962 163.39746 C 13.212323 198.57709 39.585148 225.001732 74.817873 224.999897 Z M 42.912012 156.573264 C 41.786652 157.701973 40.923983 158.134669 40.015566 158.134358 C 38.508306 158.132288 37.383851 156.792225 37.379993 154.372633 L 37.382741 99.588043 C 37.380375 77.836366 52.795895 62.208393 74.81537 62.208806 L 92.378638 62.209364 C 103.817994 62.207344 113.540636 66.397562 120.089902 73.435901 C 121.003596 74.50899 121.436604 75.419676 121.436803 76.493616 C 121.433401 77.621814 121.005697 78.483859 119.880336 79.612568 Z M 74.816413 200.779448 C 63.375894 200.776391 53.440364 196.426549 46.835706 189.123051 C 45.975929 188.262027 45.757936 187.403613 45.757907 186.703658 C 45.757708 185.629718 46.189354 184.504953 47.316189 183.429338 L 124.281875 106.41047 C 125.409874 105.339933 126.267466 104.9084 127.127866 104.909023 C 128.68822 104.909618 129.811199 106.196587 129.813895 108.611102 L 129.811147 163.395692 C 129.812719 185.633783 114.397992 200.775341 92.378518 200.774928 Z M 74.816413 200.779448 " stroke="#000000" stroke-width="16.4997" stroke-opacity="1" stroke-miterlimit="4"/><g fill="#f67373" fill-opacity="1"><g transform="translate(223.420244, 235.647478)"><g><path d="M 54.679688 12.523438 L 67.546875 15.472656 C 93.441406 21.402344 116.964844 6.648438 122.894531 -19.246094 L 133.578125 -65.886719 C 139.472656 -91.617188 124.59375 -115.335938 98.859375 -121.230469 L 85.992188 -124.179688 C 60.261719 -130.074219 36.542969 -115.195312 30.648438 -89.460938 L 19.964844 -42.820312 C 14.070312 -17.089844 28.949219 6.628906 54.679688 12.523438 Z M 42.816406 -42.835938 C 41.828125 -42.214844 41.113281 -42.039062 40.46875 -42.1875 C 39.34375 -42.445312 38.761719 -43.59375 39.164062 -45.363281 L 48.339844 -85.410156 C 51.984375 -101.332031 65.859375 -110.171875 81.941406 -106.488281 L 94.808594 -103.539062 C 103.171875 -101.625 109.546875 -96.949219 113.191406 -90.695312 C 113.652344 -89.746094 113.828125 -89.027344 113.640625 -88.222656 C 113.457031 -87.421875 112.988281 -86.851562 112 -86.230469 Z M 58.734375 -5.167969 C 50.371094 -7.082031 43.871094 -11.957031 40.261719 -18.367188 C 39.765625 -19.160156 39.75 -19.839844 39.863281 -20.320312 C 40.046875 -21.125 40.550781 -21.855469 41.539062 -22.476562 L 110.722656 -65.871094 C 111.710938 -66.492188 112.429688 -66.667969 113.070312 -66.519531 C 114.199219 -66.261719 114.78125 -65.113281 114.375 -63.34375 L 105.203125 -23.296875 C 101.480469 -7.054688 87.683594 1.464844 71.601562 -2.21875 Z M 58.734375 -5.167969 "/></g></g></g><path stroke-linecap="butt" transform="matrix(2.227854, 0, 0, 2.227854, 118.908599, 109.883928)" fill="none" stroke-linejoin="miter" d="M 14.057458 42.390702 C 14.057458 45.27324 14.529114 47.452678 15.475934 48.927261 C 16.422753 50.403598 17.962211 51.141766 20.097814 51.141766 C 22.215884 51.141766 23.739562 50.407105 24.667094 48.941288 C 25.59638 47.473718 26.061022 45.290774 26.061022 42.390702 C 26.061022 39.509916 25.592873 37.348012 24.65482 35.906743 C 23.716768 34.467227 22.180817 33.746592 20.045213 33.746592 C 17.927144 33.746592 16.399959 34.461967 15.46366 35.894469 C 14.525608 37.326972 14.057458 39.492383 14.057458 42.390702 Z M 34.186134 42.390702 C 34.186134 47.130058 32.935982 50.83668 30.435678 53.510568 C 27.935374 56.184455 24.454936 57.520523 19.994366 57.520523 C 17.199495 57.520523 14.734259 56.908597 12.598655 55.684745 C 10.463052 54.460894 8.821898 52.704018 7.676948 50.412365 C 6.530245 48.120711 5.958647 45.446824 5.958647 42.390702 C 5.958647 37.635565 7.200032 33.93771 9.681049 31.298889 C 12.16382 28.660069 15.653024 27.339782 20.150415 27.339782 C 22.945286 27.339782 25.410522 27.948201 27.546126 29.163286 C 29.679976 30.378371 31.321129 32.122973 32.466079 34.397092 C 33.612783 36.671212 34.186134 39.336333 34.186134 42.390702 Z M 56.995712 27.339782 C 58.07228 27.339782 58.966498 27.418684 59.678366 27.574733 L 59.078714 35.023045 C 58.436981 34.849461 57.654978 34.761793 56.73446 34.761793 C 54.200841 34.761793 52.226548 35.412293 50.811579 36.715046 C 49.39661 38.016046 48.688249 39.83955 48.688249 42.183804 L 48.688249 56.999772 L 40.747241 56.999772 L 40.747241 27.886833 L 46.761297 27.886833 L 47.934301 32.782239 L 48.323548 32.782239 C 49.226534 31.151606 50.446878 29.836579 51.98283 28.837159 C 53.518781 27.839492 55.189741 27.339782 56.995712 27.339782 Z M 56.995712 27.339782 " stroke="#000000" stroke-width="3.999998" stroke-opacity="1" stroke-miterlimit="4"/><g fill="#ffffff" fill-opacity="1"><g transform="translate(126.845329, 236.871602)"><g><path d="M 23.375 -32.546875 C 23.375 -26.128906 24.425781 -21.273438 26.53125 -17.984375 C 28.644531 -14.691406 32.082031 -13.046875 36.84375 -13.046875 C 41.5625 -13.046875 44.953125 -14.679688 47.015625 -17.953125 C 49.085938 -21.222656 50.125 -26.085938 50.125 -32.546875 C 50.125 -38.960938 49.078125 -43.773438 46.984375 -46.984375 C 44.898438 -50.203125 41.476562 -51.8125 36.71875 -51.8125 C 32 -51.8125 28.59375 -50.210938 26.5 -47.015625 C 24.414062 -43.828125 23.375 -39.003906 23.375 -32.546875 Z M 68.21875 -32.546875 C 68.21875 -21.984375 65.429688 -13.722656 59.859375 -7.765625 C 54.296875 -1.816406 46.546875 1.15625 36.609375 1.15625 C 30.378906 1.15625 24.882812 -0.203125 20.125 -2.921875 C 15.375 -5.648438 11.722656 -9.566406 9.171875 -14.671875 C 6.617188 -19.773438 5.34375 -25.734375 5.34375 -32.546875 C 5.34375 -43.140625 8.101562 -51.375 13.625 -57.25 C 19.15625 -63.132812 26.929688 -66.078125 36.953125 -66.078125 C 43.179688 -66.078125 48.671875 -64.722656 53.421875 -62.015625 C 58.179688 -59.304688 61.835938 -55.414062 64.390625 -50.34375 C 66.941406 -45.28125 68.21875 -39.347656 68.21875 -32.546875 Z M 68.21875 -32.546875 "/></g></g></g><g fill="#ffffff" fill-opacity="1"><g transform="translate(200.403739, 236.871602)"><g><path d="M 45.484375 -66.078125 C 47.878906 -66.078125 49.867188 -65.90625 51.453125 -65.5625 L 50.125 -48.96875 C 48.695312 -49.351562 46.957031 -49.546875 44.90625 -49.546875 C 39.257812 -49.546875 34.859375 -48.09375 31.703125 -45.1875 C 28.546875 -42.289062 26.96875 -38.234375 26.96875 -33.015625 L 26.96875 0 L 9.28125 0 L 9.28125 -64.859375 L 22.6875 -64.859375 L 25.296875 -53.953125 L 26.171875 -53.953125 C 28.179688 -57.585938 30.894531 -60.515625 34.3125 -62.734375 C 37.738281 -64.960938 41.460938 -66.078125 45.484375 -66.078125 Z M 45.484375 -66.078125 "/></g></g></g></svg>